<?xml version="1.0" encoding="UTF-8"?>
<svg id="Layer_1" xmlns="http://www.w3.org/2000/svg" version="1.1" viewBox="0 0 188.85 40">
  <!-- Generator: Adobe Illustrator 30.2.1, SVG Export Plug-In . SVG Version: 2.1.1 Build 1)  -->
  <defs>
    <style>
      .st0 {
        opacity: .2;
      }

      .st0, .st1, .st2, .st3, .st4 {
        fill: #fff;
      }

      .st1 {
        opacity: .4;
      }

      .st2 {
        opacity: .6;
      }

      .st3 {
        opacity: .8;
      }
    </style>
  </defs>
  <polygon class="st0" points="0 8.67 14.72 0 14.72 15.48 0 24.15 0 8.67"/>
  <polygon class="st2" points="29.43 8.67 14.71 0 14.71 15.48 29.43 24.15 29.43 8.67"/>
  <polygon class="st3" points="0 31.33 14.72 40 14.72 24.52 0 15.85 0 31.33"/>
  <polygon class="st1" points="29.43 31.33 14.71 40 14.71 24.52 29.43 15.85 29.43 31.33"/>
  <g>
    <path class="st4" d="M45.93,29.04h-2.83l-8.63-18.36h4.48l5.59,12.17,5.22-12.17h4.38l-8.21,18.36Z"/>
    <path class="st4" d="M57.41,10.68h3.02l8.05,18.36h-4.25l-1.49-3.41h-7.68l-1.49,3.41h-4.2l8.05-18.36ZM56.47,22.2h4.77l-2.36-5.48-2.41,5.48Z"/>
    <path class="st4" d="M78.34,22.71c-.51-.34-1.14-.6-1.89-.79s-1.57-.42-2.47-.72c-.89-.3-1.71-.63-2.47-1-.75-.37-1.38-.92-1.89-1.67-.51-.74-.76-1.64-.76-2.69,0-1.52.66-2.83,1.98-3.93,1.32-1.1,3.03-1.65,5.13-1.65,3.09,0,5.49,1.13,7.19,3.38l-2.73,2.62c-1.33-1.47-2.87-2.2-4.62-2.2-1.84,0-2.75.58-2.75,1.73,0,.44.25.8.76,1.1.51.3,1.14.53,1.89.69.75.17,1.57.4,2.47.69.89.3,1.71.63,2.47,1,.75.37,1.38.93,1.89,1.68.51.75.76,1.64.76,2.67,0,1.66-.66,3.05-1.99,4.16-1.33,1.11-2.98,1.67-4.96,1.67-2.08,0-3.85-.42-5.3-1.26s-2.52-1.91-3.2-3.23l2.96-2.47c.61.98,1.39,1.75,2.33,2.31s1.98.84,3.09.84c.96,0,1.68-.16,2.15-.49.47-.32.71-.73.71-1.22s-.25-.9-.76-1.25Z"/>
  </g>
  <g>
    <path class="st4" d="M101.37,18.24h-.69l-3.49-7.28h1.02l2.84,5.95,2.66-5.95h.99l-3.33,7.28Z"/>
    <path class="st4" d="M108.52,17.21c-.5.75-1.22,1.12-2.16,1.12-.87,0-1.56-.25-2.09-.76s-.79-1.19-.79-2.04.24-1.5.72-2.03,1.16-.79,2.03-.79c.72,0,1.32.23,1.79.68s.71,1.04.71,1.78c0,.24-.02.45-.05.66h-4.26c.03.53.22.95.58,1.25.36.3.83.45,1.39.45.32,0,.62-.08.9-.23.28-.15.5-.35.67-.59l.56.52ZM104.96,13.93c-.31.28-.5.64-.57,1.1h3.4c-.03-.48-.19-.85-.47-1.12-.29-.27-.67-.4-1.16-.4s-.89.14-1.2.42Z"/>
    <path class="st4" d="M109.43,12.84h.87v.71c.17-.26.42-.47.75-.61.33-.14.7-.21,1.1-.21,1.46,0,2.19.81,2.19,2.44v3.08h-.87v-2.97c0-.6-.13-1.03-.39-1.31-.26-.28-.66-.42-1.19-.42-.33,0-.64.1-.94.3-.29.2-.51.46-.66.79v3.61h-.87v-5.41Z"/>
    <path class="st4" d="M120.04,17.21c-.5.75-1.22,1.12-2.16,1.12-.87,0-1.56-.25-2.09-.76s-.79-1.19-.79-2.04.24-1.5.72-2.03,1.16-.79,2.03-.79c.72,0,1.32.23,1.79.68s.71,1.04.71,1.78c0,.24-.02.45-.05.66h-4.26c.03.53.22.95.58,1.25.36.3.83.45,1.39.45.32,0,.62-.08.9-.23.28-.15.5-.35.67-.59l.56.52ZM116.49,13.93c-.31.28-.5.64-.57,1.1h3.4c-.03-.48-.19-.85-.47-1.12-.29-.27-.67-.4-1.16-.4s-.89.14-1.2.42Z"/>
    <path class="st4" d="M120.44,12.84h4.58v.57l-3.42,4.01h3.36v.82h-4.68v-.58l3.42-4h-3.26v-.82Z"/>
    <path class="st4" d="M130.39,18.24h-.87v-.77c-.42.58-1,.86-1.76.86s-1.31-.19-1.67-.58c-.37-.39-.55-.99-.55-1.82v-3.13h.87v3.01c0,1.14.47,1.71,1.42,1.71.37,0,.71-.1,1-.31.29-.2.52-.49.69-.87v-3.54h.87v5.44Z"/>
    <path class="st4" d="M136.13,17.21c-.5.75-1.22,1.12-2.16,1.12-.87,0-1.56-.25-2.09-.76s-.79-1.19-.79-2.04.24-1.5.72-2.03,1.16-.79,2.03-.79c.72,0,1.32.23,1.79.68s.71,1.04.71,1.78c0,.24-.02.45-.05.66h-4.26c.03.53.22.95.58,1.25.36.3.83.45,1.39.45.32,0,.62-.08.9-.23.28-.15.5-.35.67-.59l.56.52ZM132.57,13.93c-.31.28-.5.64-.57,1.1h3.4c-.03-.48-.19-.85-.47-1.12-.29-.27-.67-.4-1.16-.4s-.89.14-1.2.42Z"/>
    <path class="st4" d="M137.12,10.65h.87v7.59h-.87v-7.59Z"/>
    <path class="st4" d="M139.06,13.48c.25-.24.57-.42.97-.56.4-.14.79-.21,1.2-.21.72,0,1.27.19,1.65.57s.57.92.57,1.62v3.34h-.87v-.8c-.17.25-.42.46-.75.62s-.71.25-1.14.25c-.59,0-1.06-.15-1.42-.45-.36-.3-.54-.7-.54-1.2,0-.57.23-.99.69-1.26.46-.27,1.09-.41,1.9-.41.51,0,.93.05,1.27.16,0-.53-.11-.93-.32-1.2s-.59-.41-1.12-.41-1.08.2-1.61.6l-.45-.66ZM141.94,17.19c.3-.22.51-.46.62-.73v-.55c-.3-.1-.68-.16-1.15-.16-1.19,0-1.78.29-1.78.87,0,.28.11.5.34.66.23.16.53.24.9.24.41,0,.76-.11,1.07-.33Z"/>
    <path class="st4" d="M100.44,21.52h.75l3.19,7.3h-.99l-.81-1.84h-3.57l-.8,1.84h-.97l3.19-7.3ZM99.36,26.15h2.86l-1.44-3.31-1.42,3.31Z"/>
    <path class="st4" d="M108.56,28.18c-.12.19-.33.36-.62.51-.3.15-.65.23-1.06.23-.8,0-1.44-.25-1.93-.75s-.73-1.18-.73-2.04.26-1.51.79-2.04,1.18-.8,1.94-.8c.72,0,1.26.18,1.61.53v-2.59h.87v7.59h-.87v-.64ZM107.96,27.76c.27-.21.47-.45.6-.71v-2.18c-.35-.51-.85-.76-1.51-.76-.53,0-.99.18-1.36.55-.37.37-.56.85-.56,1.45s.17,1.08.52,1.44c.35.36.79.54,1.34.54.37,0,.69-.11.96-.32Z"/>
    <path class="st4" d="M112.84,28.82h-.64l-2.53-5.41h1.01l1.86,4.05,1.79-4.05h.94l-2.42,5.41Z"/>
    <path class="st4" d="M115.67,21.3c.11-.1.24-.15.4-.15.15,0,.27.05.38.15.11.1.16.22.16.36s-.05.28-.16.38-.23.16-.38.16c-.16,0-.29-.05-.4-.16s-.16-.23-.16-.38.05-.27.16-.36ZM115.62,23.42h.87v5.41h-.87v-5.41Z"/>
    <path class="st4" d="M120.58,26.8c-.24-.14-.52-.24-.86-.32-.34-.07-.67-.16-1.01-.25-.34-.1-.63-.26-.86-.49-.24-.23-.35-.53-.35-.89,0-.48.21-.86.62-1.13s.96-.42,1.63-.42c.45,0,.85.09,1.2.26.35.17.62.4.82.68l-.61.57c-.34-.46-.86-.69-1.56-.69-.31,0-.58.06-.82.18-.23.12-.35.29-.35.51,0,.21.12.37.35.49.24.12.52.22.86.29.34.08.67.17,1.01.27.34.1.62.28.86.53.24.25.35.57.35.96,0,.53-.2.92-.59,1.19s-.92.4-1.58.4c-.55,0-1.05-.12-1.49-.35s-.76-.54-.95-.93l.7-.49c.16.28.41.51.75.69s.72.26,1.14.26c.73,0,1.1-.25,1.1-.75,0-.23-.12-.41-.35-.55Z"/>
    <path class="st4" d="M123.02,24.08c.53-.53,1.22-.79,2.06-.79s1.55.26,2.08.79c.53.53.8,1.2.8,2.03s-.27,1.49-.81,2.02-1.23.79-2.07.79-1.53-.26-2.06-.79c-.53-.53-.8-1.2-.8-2.02s.27-1.5.8-2.03ZM123.69,27.54c.36.37.83.56,1.39.56s1.05-.18,1.41-.55c.36-.37.55-.85.55-1.44s-.19-1.07-.56-1.44-.84-.56-1.4-.56-1.02.18-1.39.55c-.36.37-.55.85-.55,1.45s.18,1.05.54,1.42Z"/>
    <path class="st4" d="M128.67,23.42h.87v.42c.09-.18.24-.31.45-.4.21-.09.43-.13.67-.13.48,0,.85.16,1.1.49l-.55.6c-.13-.18-.35-.27-.64-.27-.24,0-.45.09-.64.26-.19.17-.32.4-.38.68v3.76h-.87v-5.41Z"/>
    <path class="st4" d="M132.82,30.12c.08.03.16.05.23.05.2,0,.38-.08.54-.25.16-.17.33-.46.51-.89l.17-.41-2.62-5.21h1.03l2.03,4.11,1.53-4.11h.96l-2.06,5.32c-.35.87-.68,1.47-.99,1.79-.31.32-.66.48-1.06.48-.23,0-.43-.04-.6-.12l.34-.76Z"/>
    <path class="st4" d="M146.48,28.82c-.1-.07-.19-.15-.29-.23-.1-.08-.18-.15-.24-.21-.06-.06-.15-.14-.25-.24-.11-.1-.19-.18-.23-.22-.26.3-.59.54-1.01.72-.42.18-.86.28-1.34.28-.82,0-1.48-.19-1.99-.58s-.76-.88-.76-1.49c0-.28.06-.54.18-.78s.28-.46.5-.66.42-.37.62-.51c.2-.14.44-.3.71-.46.03-.01.05-.03.07-.04.02-.01.04-.02.06-.04-.46-.59-.7-1.13-.7-1.61,0-.38.14-.69.42-.94.28-.24.65-.36,1.11-.36.5,0,.88.12,1.15.35.27.24.4.56.4.97,0,.6-.41,1.18-1.23,1.75.32.5.92,1.22,1.81,2.16.22-.35.4-.76.54-1.25.14-.49.21-.98.21-1.48h.89c0,.6-.09,1.2-.28,1.82s-.44,1.14-.76,1.56c.45.49,1.01.99,1.66,1.49h-1.24ZM144.1,27.87c.32-.14.56-.32.73-.54-.67-.73-1.31-1.5-1.9-2.29-.04.03-.13.09-.28.18-.14.09-.23.16-.28.19s-.12.09-.23.17-.19.14-.23.18c-.04.04-.1.1-.19.18-.08.08-.14.14-.17.19s-.06.12-.11.19c-.05.08-.07.15-.09.23-.01.08-.02.16-.02.24,0,.35.16.66.49.91s.77.38,1.33.38c.31,0,.63-.07.94-.21ZM142.75,23.07c.02.07.03.13.05.17.01.05.04.11.09.18.05.08.08.13.09.15.02.02.06.08.12.17.07.09.1.14.11.16.5-.36.75-.71.75-1.05,0-.19-.05-.34-.16-.46s-.26-.18-.46-.18c-.19,0-.34.06-.45.17s-.17.27-.17.49c0,.06,0,.13.03.2Z"/>
    <path class="st4" d="M155.22,26.28c-.17-.17-.38-.3-.64-.39-.26-.09-.55-.18-.87-.26-.32-.08-.64-.17-.96-.27-.32-.1-.61-.22-.87-.36-.26-.14-.48-.34-.64-.6-.17-.26-.25-.57-.25-.94,0-.56.25-1.03.74-1.42.5-.38,1.15-.58,1.95-.58,1.22,0,2.1.35,2.65,1.06l-.61.61c-.52-.52-1.21-.78-2.06-.78-.42,0-.81.09-1.16.27s-.53.45-.53.82c0,.28.11.51.33.69s.5.32.83.4c.33.08.69.18,1.08.3.39.11.75.24,1.08.36s.61.33.83.61c.22.28.33.62.33,1.03,0,.62-.25,1.12-.75,1.51s-1.13.59-1.89.59c-.62,0-1.21-.14-1.76-.41s-.96-.6-1.22-.99l.61-.67c.26.33.6.61,1.03.84s.91.34,1.44.34c.44,0,.81-.1,1.11-.31s.46-.48.46-.83c0-.24-.08-.45-.25-.61Z"/>
    <path class="st4" d="M161.97,27.8c-.5.75-1.22,1.12-2.16,1.12-.87,0-1.56-.25-2.09-.76-.53-.51-.79-1.19-.79-2.04s.24-1.5.72-2.03,1.16-.79,2.03-.79c.72,0,1.32.23,1.79.68s.71,1.04.71,1.78c0,.24-.02.45-.05.66h-4.26c.03.53.22.95.58,1.25.36.3.83.45,1.39.45.32,0,.62-.08.9-.23.28-.15.5-.35.67-.59l.56.52ZM158.42,24.51c-.31.28-.5.64-.57,1.1h3.4c-.03-.48-.19-.85-.47-1.12-.29-.27-.67-.4-1.16-.4s-.89.14-1.2.42Z"/>
    <path class="st4" d="M162.88,23.42h.87v.42c.09-.18.24-.31.45-.4s.43-.13.67-.13c.48,0,.85.16,1.1.49l-.55.6c-.13-.18-.35-.27-.64-.27-.24,0-.45.09-.64.26-.19.17-.32.4-.38.68v3.76h-.87v-5.41Z"/>
    <path class="st4" d="M168.97,28.82h-.64l-2.53-5.41h1.01l1.86,4.05,1.79-4.05h.94l-2.42,5.41Z"/>
    <path class="st4" d="M171.79,21.3c.11-.1.24-.15.4-.15.15,0,.27.05.38.15.11.1.16.22.16.36s-.05.28-.16.38-.23.16-.38.16c-.16,0-.29-.05-.4-.16s-.16-.23-.16-.38.05-.27.16-.36ZM171.74,23.42h.87v5.41h-.87v-5.41Z"/>
    <path class="st4" d="M178.56,27.71c-.2.38-.51.68-.93.89-.42.21-.85.32-1.3.32-.87,0-1.57-.25-2.1-.76-.53-.51-.8-1.19-.8-2.04s.26-1.48.79-2.02c.53-.53,1.21-.8,2.05-.8.49,0,.93.1,1.33.3.4.2.69.47.87.8l-.68.46c-.36-.49-.86-.74-1.5-.74-.56,0-1.02.19-1.39.56-.36.37-.55.85-.55,1.44s.19,1.08.57,1.44c.38.36.87.55,1.48.55.64,0,1.15-.28,1.52-.83l.62.45Z"/>
    <path class="st4" d="M183.7,27.8c-.5.75-1.22,1.12-2.16,1.12-.87,0-1.56-.25-2.09-.76-.53-.51-.79-1.19-.79-2.04s.24-1.5.72-2.03,1.16-.79,2.03-.79c.72,0,1.32.23,1.79.68s.71,1.04.71,1.78c0,.24-.02.45-.05.66h-4.26c.03.53.22.95.58,1.25.36.3.83.45,1.39.45.32,0,.62-.08.9-.23.28-.15.5-.35.67-.59l.56.52ZM180.15,24.51c-.31.28-.5.64-.57,1.1h3.4c-.03-.48-.19-.85-.47-1.12-.29-.27-.67-.4-1.16-.4s-.89.14-1.2.42Z"/>
    <path class="st4" d="M187.58,26.8c-.24-.14-.52-.24-.86-.32-.34-.07-.67-.16-1.01-.25-.34-.1-.63-.26-.86-.49-.24-.23-.35-.53-.35-.89,0-.48.21-.86.62-1.13s.96-.42,1.63-.42c.45,0,.85.09,1.2.26.35.17.62.4.82.68l-.61.57c-.34-.46-.86-.69-1.56-.69-.31,0-.58.06-.82.18-.23.12-.35.29-.35.51,0,.21.12.37.35.49.24.12.52.22.86.29.34.08.67.17,1.01.27.34.1.62.28.86.53.24.25.35.57.35.96,0,.53-.2.92-.59,1.19s-.92.4-1.58.4c-.55,0-1.05-.12-1.49-.35s-.76-.54-.95-.93l.7-.49c.16.28.41.51.75.69s.72.26,1.14.26c.73,0,1.1-.25,1.1-.75,0-.23-.12-.41-.35-.55Z"/>
  </g>
  <rect class="st4" x="89.62" y="10.27" width=".63" height="18.78"/>
</svg>