<?xml version="1.0" encoding="UTF-8"?>
<svg id="Layer_1" xmlns="http://www.w3.org/2000/svg" version="1.1" viewBox="0 0 100 23">
  <!-- Generator: Adobe Illustrator 30.2.1, SVG Export Plug-In . SVG Version: 2.1.1 Build 1)  -->
  <defs>
    <style>
      .st0 {
        fill: #fff;
      }
    </style>
  </defs>
  <path class="st0" d="M16.45,12.32c-2.97,0-5.34,2.37-5.34,5.34s2.37,5.34,5.34,5.34,5.34-2.37,5.34-5.34-2.37-5.34-5.34-5.34M16.45,19.35c-1.02,0-1.78-.76-1.78-1.78s.76-1.78,1.78-1.78,1.78.76,1.78,1.78-.76,1.78-1.78,1.78"/>
  <path class="st0" d="M16.45,0c-2.96,0-5.34,2.37-5.34,5.34s2.37,5.34,5.34,5.34,5.34-2.37,5.34-5.34S19.42,0,16.45,0M16.45,7.04c-1.02,0-1.78-.76-1.78-1.78s.76-1.78,1.78-1.78,1.78.76,1.78,1.78-.76,1.78-1.78,1.78"/>
  <path class="st0" d="M5.85,6.1c-2.97,0-5.34,2.37-5.34,5.34s2.37,5.34,5.34,5.34,5.34-2.37,5.34-5.34-2.37-5.34-5.34-5.34M5.85,13.14c-1.02,0-1.78-.76-1.78-1.78s.76-1.78,1.78-1.78,1.78.76,1.78,1.78-.76,1.78-1.78,1.78"/>
  <path class="st0" d="M34.21,12.36c0-2.94-2.38-5.32-5.32-5.32h-1.83v1.33c-.2-.76-.89-1.33-1.72-1.33-.98,0-1.77.79-1.77,1.77v7.09c0,.98.79,1.77,1.77,1.77s1.77-.79,1.77-1.77v-3.55c0-.98.79-1.77,1.77-1.77s1.77.79,1.77,1.77v3.55c0,.98.79,1.77,1.77,1.77s1.77-.79,1.77-1.77v-3.55h.02Z"/>
  <path class="st0" d="M79.5,12.36c0-2.94-2.38-5.32-5.32-5.32h-1.83v1.33c-.2-.76-.89-1.33-1.72-1.33-.98,0-1.77.79-1.77,1.77v7.09c0,.98.79,1.77,1.77,1.77s1.77-.79,1.77-1.77v-3.55c0-.98.79-1.77,1.77-1.77s1.77.79,1.77,1.77v3.55c0,.98.79,1.77,1.77,1.77s1.77-.79,1.77-1.77v-3.55h.02Z"/>
  <path class="st0" d="M89.44,14.13l1.77-1.77c0-2.94-2.38-5.32-5.32-5.32s-5.32,2.38-5.32,5.32,2.38,5.32,5.32,5.32h3.55c.98,0,1.77-.79,1.77-1.77s-.79-1.77-1.77-1.77h0ZM85.08,13.94c-.57-.29-.96-.89-.96-1.58,0-.98.79-1.77,1.77-1.77.68,0,1.28.39,1.57.95l-2.38,2.39h0Z"/>
  <path class="st0" d="M55.8,7.23c-.88-.44-1.94-.08-2.38.79l-1.96,3.92-1.96-3.92c-.44-.88-1.5-1.23-2.38-.79s-1.23,1.5-.79,2.38l3.49,6.97c.33.65.81,1.08,1.64,1.1h0c.8,0,1.31-.51,1.64-1.1l3.49-6.97c.44-.88.08-1.94-.79-2.38h0Z"/>
  <path class="st0" d="M40.59,7.04c-2.94,0-5.32,2.38-5.32,5.32s2.38,5.32,5.32,5.32,5.32-2.38,5.32-5.32-2.38-5.32-5.32-5.32ZM40.59,14.13c-.98,0-1.77-.79-1.77-1.77s.79-1.77,1.77-1.77,1.77.79,1.77,1.77-.79,1.77-1.77,1.77Z"/>
  <path class="st0" d="M62.3,14.13c-.98,0-1.77-.79-1.77-1.77s.79-1.77,1.77-1.77,1.77.79,1.77,1.77-.79,1.77-1.77,1.77ZM67.62,15.91v-3.55,3.55-3.55c0-2.94-2.38-5.32-5.32-5.32s-5.32,2.38-5.32,5.32,2.38,5.32,5.32,5.32h1.83v-1.33c.2.76.89,1.33,1.72,1.33.98,0,1.77-.79,1.77-1.77v-3.55M67.62,15.91h0"/>
  <path class="st0" d="M95.94,15.91c0,.98-.79,1.77-1.77,1.77s-1.77-.79-1.77-1.77V4.83c0-.98.79-1.77,1.77-1.77s1.77.79,1.77,1.77v2.22h1.77c.98,0,1.77.79,1.77,1.77s-.79,1.77-1.77,1.77-1.77.79-1.77,1.77v3.55h0Z"/>
</svg>