<?xml version="1.0" encoding="UTF-8"?>
<svg id="Layer_1" data-name="Layer 1" xmlns="http://www.w3.org/2000/svg" viewBox="0 0 2160 2160">
  <defs>
    <style>
      .cls-1 {
        fill: #b09948;
      }

      .cls-2 {
        fill: #5a5b6e;
      }

      .cls-3 {
        fill: #1d1d3f;
      }

      .cls-4 {
        fill: #e1d584;
      }

      .cls-5 {
        fill: none;
        stroke: #898989;
        stroke-miterlimit: 10;
        stroke-width: 6px;
      }

      .cls-6 {
        fill: #898989;
      }
    </style>
  </defs>
  <polygon class="cls-4" points="184.62 972.6 324.14 890.44 324.14 1037.18 184.62 1119.35 184.62 972.6"/>
  <polygon class="cls-1" points="463.59 972.6 324.07 890.44 324.07 1037.18 463.59 1119.35 463.59 972.6"/>
  <polygon class="cls-3" points="184.62 1187.4 324.14 1269.56 324.14 1122.82 184.62 1040.65 184.62 1187.4"/>
  <polygon class="cls-2" points="463.59 1187.4 324.07 1269.56 324.07 1122.82 463.59 1040.65 463.59 1187.4"/>
  <g>
    <path d="M619.93,1165.7h-26.84l-81.78-174h42.51l52.94,115.33,49.46-115.33h41.51l-77.8,174Z"/>
    <path d="M728.8,991.71h28.58l76.31,174h-40.27l-14.17-32.31h-72.83l-14.17,32.31h-39.77l76.31-174ZM719.85,1100.83h45.24l-22.37-51.95-22.87,51.95Z"/>
    <path d="M927.16,1105.68c-4.81-3.23-10.77-5.72-17.9-7.46s-14.91-4.02-23.36-6.84c-8.45-2.82-16.24-5.96-23.37-9.45-7.13-3.48-13.09-8.74-17.9-15.78-4.81-7.04-7.21-15.54-7.21-25.48,0-14.42,6.26-26.85,18.77-37.29,12.51-10.44,28.71-15.66,48.59-15.66,29.33,0,52.03,10.69,68.11,32.06l-25.85,24.86c-12.59-13.92-27.18-20.88-43.75-20.88-17.4,0-26.1,5.47-26.1,16.41,0,4.14,2.4,7.62,7.21,10.44s10.77,5.01,17.9,6.59c7.13,1.57,14.91,3.77,23.37,6.59,8.45,2.82,16.24,5.97,23.37,9.45,7.13,3.48,13.09,8.78,17.9,15.91,4.81,7.12,7.21,15.58,7.21,25.35,0,15.74-6.3,28.88-18.89,39.4s-28.25,15.78-46.98,15.78c-19.72,0-36.46-3.98-50.21-11.93s-23.86-18.15-30.33-30.57l28.09-23.37c5.8,9.28,13.17,16.57,22.12,21.87,8.95,5.3,18.73,7.95,29.33,7.95,9.11,0,15.91-1.53,20.38-4.6,4.47-3.07,6.71-6.92,6.71-11.56s-2.4-8.58-7.21-11.81Z"/>
  </g>
  <g>
    <path class="cls-6" d="M1145.44,1063.36h-6.51l-33.12-69h9.66l26.91,56.38,25.23-56.38h9.36l-31.54,69Z"/>
    <path class="cls-6" d="M1213.16,1053.6c-4.73,7.1-11.57,10.65-20.5,10.65-8.21,0-14.82-2.42-19.81-7.25s-7.49-11.29-7.49-19.37,2.28-14.23,6.85-19.22,10.99-7.49,19.27-7.49c6.83,0,12.49,2.14,16.96,6.41s6.7,9.89,6.7,16.86c0,2.23-.16,4.3-.49,6.21h-40.42c.26,5.06,2.1,9,5.52,11.83s7.82,4.24,13.21,4.24c3.02,0,5.86-.72,8.53-2.17,2.66-1.45,4.78-3.32,6.36-5.62l5.32,4.93ZM1179.49,1022.45c-2.92,2.63-4.72,6.11-5.37,10.45h32.23c-.26-4.53-1.76-8.07-4.49-10.6-2.73-2.53-6.39-3.79-10.99-3.79s-8.46,1.31-11.38,3.94Z"/>
    <path class="cls-6" d="M1221.83,1012.1h8.28v6.7c1.64-2.5,4.03-4.42,7.15-5.77s6.59-2.02,10.4-2.02c13.87,0,20.8,7.72,20.8,23.16v29.18h-8.28v-28.19c0-5.65-1.23-9.79-3.7-12.42-2.46-2.63-6.23-3.94-11.29-3.94-3.15,0-6.11.95-8.87,2.86s-4.83,4.4-6.21,7.49v34.2h-8.28v-51.26Z"/>
    <path class="cls-6" d="M1322.37,1053.6c-4.73,7.1-11.57,10.65-20.5,10.65-8.21,0-14.82-2.42-19.81-7.25s-7.49-11.29-7.49-19.37,2.28-14.23,6.85-19.22,10.99-7.49,19.27-7.49c6.83,0,12.49,2.14,16.96,6.41s6.7,9.89,6.7,16.86c0,2.23-.16,4.3-.49,6.21h-40.42c.26,5.06,2.1,9,5.52,11.83s7.82,4.24,13.21,4.24c3.02,0,5.86-.72,8.53-2.17,2.66-1.45,4.78-3.32,6.36-5.62l5.32,4.93ZM1288.71,1022.45c-2.92,2.63-4.72,6.11-5.37,10.45h32.23c-.26-4.53-1.76-8.07-4.49-10.6-2.73-2.53-6.39-3.79-10.99-3.79s-8.46,1.31-11.38,3.94Z"/>
    <path class="cls-6" d="M1326.21,1012.1h43.37v5.42l-32.43,38.05h31.84v7.79h-44.36v-5.52l32.43-37.95h-30.85v-7.79Z"/>
    <path class="cls-6" d="M1420.44,1063.36h-8.28v-7.29c-3.94,5.45-9.5,8.18-16.66,8.18s-12.39-1.84-15.87-5.52c-3.48-3.68-5.22-9.43-5.22-17.25v-29.67h8.28v28.49c0,10.78,4.5,16.17,13.5,16.17,3.55,0,6.7-.97,9.46-2.91,2.76-1.94,4.93-4.68,6.51-8.23v-33.51h8.28v51.55Z"/>
    <path class="cls-6" d="M1474.85,1053.6c-4.73,7.1-11.57,10.65-20.5,10.65-8.21,0-14.82-2.42-19.81-7.25s-7.49-11.29-7.49-19.37,2.28-14.23,6.85-19.22,10.99-7.49,19.27-7.49c6.83,0,12.49,2.14,16.96,6.41s6.7,9.89,6.7,16.86c0,2.23-.16,4.3-.49,6.21h-40.42c.26,5.06,2.1,9,5.52,11.83s7.82,4.24,13.21,4.24c3.02,0,5.87-.72,8.53-2.17,2.66-1.45,4.78-3.32,6.36-5.62l5.32,4.93ZM1441.19,1022.45c-2.92,2.63-4.72,6.11-5.37,10.45h32.23c-.26-4.53-1.76-8.07-4.49-10.6-2.73-2.53-6.39-3.79-10.99-3.79s-8.46,1.31-11.38,3.94Z"/>
    <path class="cls-6" d="M1484.31,991.4h8.28v71.96h-8.28v-71.96Z"/>
    <path class="cls-6" d="M1502.65,1018.21c2.37-2.23,5.42-4.01,9.17-5.32,3.75-1.31,7.52-1.97,11.33-1.97,6.83,0,12.04,1.81,15.62,5.42s5.37,8.74,5.37,15.38v31.64h-8.28v-7.59c-1.64,2.37-4.01,4.34-7.1,5.91s-6.7,2.37-10.84,2.37c-5.59,0-10.09-1.43-13.5-4.29-3.42-2.86-5.13-6.65-5.13-11.39,0-5.39,2.17-9.38,6.51-11.98,4.34-2.6,10.35-3.89,18.04-3.89,4.8,0,8.81.49,12.03,1.48,0-4.99-1.02-8.79-3.06-11.38s-5.59-3.89-10.65-3.89-10.22,1.91-15.28,5.72l-4.24-6.21ZM1530,1053.4c2.86-2.1,4.81-4.4,5.86-6.9v-5.22c-2.83-.99-6.47-1.48-10.94-1.48-11.24,0-16.86,2.76-16.86,8.28,0,2.63,1.08,4.7,3.25,6.21,2.17,1.51,5.03,2.27,8.58,2.27,3.88,0,7.25-1.05,10.1-3.15Z"/>
    <path class="cls-6" d="M1136.57,1094.44h7.1l30.26,69.2h-9.36l-7.69-17.45h-33.81l-7.59,17.45h-9.17l30.26-69.2ZM1126.41,1138.31h27.11l-13.6-31.35-13.5,31.35Z"/>
    <path class="cls-6" d="M1213.55,1157.53c-1.12,1.77-3.09,3.38-5.91,4.83-2.83,1.45-6.18,2.17-10.05,2.17-7.56,0-13.65-2.37-18.29-7.1s-6.95-11.17-6.95-19.32,2.5-14.34,7.49-19.37,11.14-7.54,18.43-7.54c6.83,0,11.93,1.68,15.28,5.03v-24.54h8.28v71.96h-8.28v-6.11ZM1207.88,1153.59c2.6-2.04,4.49-4.27,5.67-6.7v-20.7c-3.29-4.8-8.05-7.2-14.29-7.2-5.06,0-9.35,1.74-12.86,5.22-3.52,3.48-5.27,8.05-5.27,13.7s1.64,10.27,4.93,13.65c3.29,3.38,7.52,5.08,12.72,5.08,3.48,0,6.52-1.02,9.12-3.06Z"/>
    <path class="cls-6" d="M1254.16,1163.64h-6.11l-23.95-51.26h9.56l17.64,38.34,16.95-38.34h8.87l-22.97,51.26Z"/>
    <path class="cls-6" d="M1280.92,1092.28c1.02-.92,2.28-1.38,3.79-1.38,1.38,0,2.58.46,3.6,1.38,1.02.92,1.53,2.07,1.53,3.45s-.51,2.66-1.53,3.65-2.22,1.48-3.6,1.48c-1.51,0-2.78-.49-3.79-1.48s-1.53-2.2-1.53-3.65.51-2.53,1.53-3.45ZM1280.48,1112.38h8.28v51.26h-8.28v-51.26Z"/>
    <path class="cls-6" d="M1327.49,1144.42c-2.23-1.31-4.94-2.32-8.13-3.01-3.19-.69-6.39-1.5-9.61-2.42-3.22-.92-5.95-2.46-8.18-4.63-2.23-2.17-3.35-4.99-3.35-8.48,0-4.53,1.96-8.12,5.87-10.74s9.05-3.94,15.43-3.94c4.27,0,8.07.82,11.39,2.46,3.32,1.64,5.9,3.78,7.74,6.41l-5.82,5.42c-3.22-4.34-8.15-6.5-14.79-6.5-2.96,0-5.54.56-7.74,1.67-2.2,1.12-3.3,2.73-3.3,4.83,0,1.97,1.12,3.52,3.35,4.63,2.23,1.12,4.95,2.04,8.13,2.76,3.19.72,6.37,1.58,9.56,2.56,3.19.99,5.9,2.66,8.13,5.03,2.23,2.37,3.35,5.39,3.35,9.07,0,4.99-1.86,8.74-5.57,11.24s-8.69,3.75-14.93,3.75c-5.26,0-9.97-1.1-14.15-3.3s-7.18-5.14-9.02-8.82l6.6-4.63c1.51,2.69,3.89,4.86,7.15,6.51s6.85,2.46,10.79,2.46c6.97,0,10.45-2.37,10.45-7.1,0-2.17-1.12-3.91-3.35-5.22Z"/>
    <path class="cls-6" d="M1350.61,1118.69c5.03-4.99,11.55-7.49,19.57-7.49s14.65,2.5,19.71,7.49c5.06,4.99,7.59,11.4,7.59,19.22s-2.55,14.13-7.64,19.12-11.65,7.49-19.67,7.49-14.46-2.5-19.52-7.49c-5.06-4.99-7.59-11.37-7.59-19.12s2.51-14.23,7.54-19.22ZM1356.97,1151.42c3.42,3.55,7.82,5.32,13.21,5.32s9.91-1.74,13.36-5.22c3.45-3.48,5.17-8.02,5.17-13.6s-1.76-10.14-5.27-13.65-7.94-5.27-13.26-5.27-9.71,1.74-13.16,5.22c-3.45,3.48-5.18,8.05-5.18,13.7s1.71,9.96,5.13,13.5Z"/>
    <path class="cls-6" d="M1404.18,1112.38h8.28v3.94c.85-1.71,2.27-2.97,4.24-3.79,1.97-.82,4.07-1.23,6.31-1.23,4.53,0,8.02,1.54,10.45,4.63l-5.22,5.72c-1.25-1.71-3.29-2.56-6.11-2.56-2.23,0-4.25.82-6.06,2.46-1.81,1.64-3.01,3.78-3.6,6.41v35.68h-8.28v-51.26Z"/>
    <path class="cls-6" d="M1443.51,1175.96c.79.33,1.51.49,2.17.49,1.91,0,3.61-.79,5.13-2.37,1.51-1.58,3.12-4.4,4.83-8.48l1.58-3.84-24.84-49.38h9.76l19.22,38.94,14.49-38.94h9.07l-19.52,50.47c-3.35,8.28-6.49,13.93-9.41,16.96-2.92,3.02-6.26,4.53-10,4.53-2.17,0-4.07-.39-5.72-1.18l3.25-7.2Z"/>
    <path class="cls-6" d="M1573.03,1163.64c-.92-.66-1.84-1.38-2.76-2.17-.92-.79-1.68-1.46-2.27-2.02-.59-.56-1.4-1.31-2.42-2.27-1.02-.95-1.76-1.66-2.22-2.12-2.43,2.83-5.62,5.11-9.56,6.85-3.94,1.74-8.18,2.61-12.72,2.61-7.75,0-14.05-1.84-18.88-5.52s-7.25-8.38-7.25-14.1c0-2.63.56-5.09,1.68-7.39s2.69-4.39,4.73-6.26,4.01-3.48,5.91-4.83c1.91-1.35,4.14-2.81,6.7-4.39.26-.13.48-.25.64-.35.17-.1.35-.21.54-.34-4.4-5.59-6.6-10.68-6.6-15.28,0-3.61,1.31-6.57,3.94-8.87,2.63-2.3,6.14-3.45,10.55-3.45,4.73,0,8.36,1.12,10.89,3.35,2.53,2.23,3.79,5.29,3.79,9.17,0,5.65-3.88,11.17-11.63,16.56,3.02,4.73,8.74,11.57,17.15,20.5,2.1-3.29,3.81-7.23,5.12-11.83,1.31-4.6,1.97-9.27,1.97-14h8.48c0,5.65-.87,11.4-2.61,17.25s-4.16,10.78-7.25,14.79c4.27,4.67,9.53,9.36,15.77,14.1h-11.73ZM1550.41,1154.57c2.99-1.31,5.31-3.02,6.95-5.13-6.37-6.97-12.39-14.19-18.04-21.69-.39.26-1.27.84-2.61,1.72-1.35.89-2.22,1.48-2.61,1.77s-1.13.82-2.22,1.58-1.82,1.33-2.22,1.73c-.39.39-.99.95-1.77,1.68-.79.72-1.31,1.33-1.58,1.82s-.61,1.1-1.04,1.82c-.43.72-.71,1.45-.84,2.17-.13.72-.2,1.48-.2,2.27,0,3.35,1.56,6.23,4.68,8.62s7.31,3.6,12.57,3.6c2.96,0,5.93-.66,8.92-1.97ZM1537.59,1109.13c.17.66.31,1.2.44,1.63.13.43.41,1,.84,1.73.43.72.72,1.2.89,1.43.16.23.56.77,1.18,1.63.62.85.97,1.35,1.04,1.48,4.73-3.42,7.1-6.74,7.1-9.96,0-1.77-.51-3.22-1.53-4.34s-2.48-1.68-4.39-1.68c-1.77,0-3.19.53-4.24,1.58s-1.58,2.6-1.58,4.63c0,.59.08,1.22.25,1.87Z"/>
    <path class="cls-6" d="M1655.82,1139.49c-1.58-1.58-3.61-2.81-6.11-3.7-2.5-.89-5.26-1.71-8.28-2.46-3.02-.76-6.05-1.61-9.07-2.56-3.02-.95-5.78-2.1-8.28-3.45-2.5-1.35-4.53-3.25-6.11-5.72-1.58-2.46-2.37-5.44-2.37-8.92,0-5.32,2.35-9.81,7.05-13.46,4.7-3.65,10.86-5.47,18.48-5.47,11.57,0,19.94,3.35,25.14,10.05l-5.82,5.82c-4.93-4.93-11.43-7.39-19.52-7.39-4.01,0-7.69.84-11.04,2.51s-5.03,4.25-5.03,7.74c0,2.63,1.05,4.81,3.15,6.55s4.73,3.01,7.89,3.79c3.15.79,6.57,1.73,10.25,2.81,3.68,1.08,7.1,2.23,10.25,3.45s5.78,3.14,7.89,5.77c2.1,2.63,3.15,5.88,3.15,9.76,0,5.85-2.37,10.63-7.1,14.34s-10.71,5.57-17.94,5.57c-5.91,0-11.48-1.3-16.71-3.89s-9.08-5.73-11.58-9.41l5.82-6.31c2.43,3.15,5.68,5.8,9.76,7.93s8.61,3.2,13.6,3.2c4.14,0,7.66-.97,10.55-2.91s4.34-4.55,4.34-7.84c0-2.3-.79-4.24-2.37-5.82Z"/>
    <path class="cls-6" d="M1719.79,1153.88c-4.73,7.1-11.57,10.65-20.5,10.65-8.21,0-14.82-2.42-19.81-7.24-4.99-4.83-7.49-11.29-7.49-19.37s2.28-14.23,6.85-19.22,10.99-7.49,19.27-7.49c6.83,0,12.49,2.14,16.96,6.41s6.7,9.89,6.7,16.86c0,2.23-.16,4.3-.49,6.21h-40.42c.26,5.06,2.1,9,5.52,11.83,3.42,2.83,7.82,4.24,13.21,4.24,3.02,0,5.87-.72,8.53-2.17,2.66-1.45,4.78-3.32,6.36-5.62l5.32,4.93ZM1686.13,1122.73c-2.92,2.63-4.72,6.11-5.37,10.45h32.23c-.26-4.54-1.76-8.07-4.49-10.6-2.73-2.53-6.39-3.79-10.99-3.79s-8.46,1.31-11.38,3.94Z"/>
    <path class="cls-6" d="M1728.47,1112.38h8.28v3.94c.85-1.71,2.27-2.97,4.24-3.79s4.07-1.23,6.31-1.23c4.53,0,8.02,1.54,10.45,4.63l-5.22,5.72c-1.25-1.71-3.29-2.56-6.11-2.56-2.23,0-4.25.82-6.06,2.46-1.81,1.64-3.01,3.78-3.6,6.41v35.68h-8.28v-51.26Z"/>
    <path class="cls-6" d="M1786.13,1163.64h-6.11l-23.95-51.26h9.56l17.64,38.34,16.95-38.34h8.87l-22.97,51.26Z"/>
    <path class="cls-6" d="M1812.89,1092.28c1.02-.92,2.28-1.38,3.79-1.38,1.38,0,2.58.46,3.6,1.38,1.02.92,1.53,2.07,1.53,3.45s-.51,2.66-1.53,3.65-2.22,1.48-3.6,1.48c-1.51,0-2.78-.49-3.79-1.48s-1.53-2.2-1.53-3.65.51-2.53,1.53-3.45ZM1812.44,1112.38h8.28v51.26h-8.28v-51.26Z"/>
    <path class="cls-6" d="M1877.01,1153.09c-1.91,3.61-4.83,6.42-8.77,8.43-3.94,2-8.05,3.01-12.32,3.01-8.21,0-14.83-2.42-19.86-7.24-5.03-4.83-7.54-11.29-7.54-19.37s2.5-14.06,7.49-19.12c4.99-5.06,11.47-7.59,19.42-7.59,4.6,0,8.79.95,12.57,2.86,3.78,1.91,6.52,4.44,8.23,7.59l-6.41,4.34c-3.42-4.67-8.15-7-14.19-7-5.32,0-9.71,1.77-13.16,5.32-3.45,3.55-5.18,8.08-5.18,13.6s1.79,10.2,5.37,13.65c3.58,3.45,8.26,5.17,14.05,5.17,6.11,0,10.91-2.63,14.39-7.88l5.91,4.24Z"/>
    <path class="cls-6" d="M1925.8,1153.88c-4.73,7.1-11.57,10.65-20.5,10.65-8.21,0-14.82-2.42-19.81-7.24-4.99-4.83-7.49-11.29-7.49-19.37s2.28-14.23,6.85-19.22,10.99-7.49,19.27-7.49c6.83,0,12.49,2.14,16.96,6.41s6.7,9.89,6.7,16.86c0,2.23-.16,4.3-.49,6.21h-40.42c.26,5.06,2.1,9,5.52,11.83,3.42,2.83,7.82,4.24,13.21,4.24,3.02,0,5.86-.72,8.53-2.17,2.66-1.45,4.78-3.32,6.36-5.62l5.32,4.93ZM1892.14,1122.73c-2.92,2.63-4.72,6.11-5.37,10.45h32.23c-.26-4.54-1.76-8.07-4.49-10.6-2.73-2.53-6.39-3.79-10.99-3.79s-8.46,1.31-11.38,3.94Z"/>
    <path class="cls-6" d="M1962.57,1144.42c-2.23-1.31-4.94-2.32-8.13-3.01-3.19-.69-6.39-1.5-9.61-2.42-3.22-.92-5.95-2.46-8.18-4.63-2.23-2.17-3.35-4.99-3.35-8.48,0-4.53,1.96-8.12,5.87-10.74s9.05-3.94,15.43-3.94c4.27,0,8.07.82,11.39,2.46,3.32,1.64,5.9,3.78,7.74,6.41l-5.82,5.42c-3.22-4.34-8.15-6.5-14.79-6.5-2.96,0-5.54.56-7.74,1.67-2.2,1.12-3.3,2.73-3.3,4.83,0,1.97,1.12,3.52,3.35,4.63,2.23,1.12,4.95,2.04,8.13,2.76,3.19.72,6.37,1.58,9.56,2.56,3.19.99,5.9,2.66,8.13,5.03,2.23,2.37,3.35,5.39,3.35,9.07,0,4.99-1.86,8.74-5.57,11.24s-8.69,3.75-14.93,3.75c-5.26,0-9.97-1.1-14.15-3.3s-7.18-5.14-9.02-8.82l6.6-4.63c1.51,2.69,3.89,4.86,7.15,6.51s6.85,2.46,10.79,2.46c6.97,0,10.45-2.37,10.45-7.1,0-2.17-1.12-3.91-3.35-5.22Z"/>
  </g>
  <line class="cls-5" x1="1037.08" y1="987.73" x2="1037.08" y2="1165.71"/>
</svg>