<?xml version="1.0" encoding="UTF-8"?>
<svg id="Layer_1" data-name="Layer 1" xmlns="http://www.w3.org/2000/svg" viewBox="0 0 2160 2160">
  <defs>
    <style>
      .cls-1 {
        fill: #1d1d3f;
      }

      .cls-2 {
        opacity: .2;
      }

      .cls-2, .cls-3, .cls-4, .cls-5, .cls-6 {
        fill: #fff;
      }

      .cls-3 {
        opacity: .4;
      }

      .cls-4 {
        opacity: .6;
      }

      .cls-5 {
        opacity: .8;
      }
    </style>
  </defs>
  <rect class="cls-1" x="3.91" y="-4.38" width="2156.09" height="2164.38"/>
  <polygon class="cls-2" points="668.1 972.6 807.61 890.44 807.61 1037.18 668.1 1119.35 668.1 972.6"/>
  <polygon class="cls-4" points="947.06 972.6 807.54 890.44 807.54 1037.18 947.06 1119.35 947.06 972.6"/>
  <polygon class="cls-5" points="668.1 1187.4 807.61 1269.56 807.61 1122.82 668.1 1040.65 668.1 1187.4"/>
  <polygon class="cls-3" points="947.06 1187.4 807.54 1269.56 807.54 1122.82 947.06 1040.65 947.06 1187.4"/>
  <g>
    <path class="cls-6" d="M1103.4,1165.7h-26.85l-81.78-174h42.5l52.94,115.33,49.46-115.33h41.51l-77.8,174Z"/>
    <path class="cls-6" d="M1212.27,991.71h28.58l76.31,174h-40.27l-14.17-32.31h-72.83l-14.17,32.31h-39.77l76.31-174ZM1203.32,1100.83h45.24l-22.37-51.95-22.87,51.95Z"/>
    <path class="cls-6" d="M1410.63,1105.67c-4.81-3.23-10.77-5.72-17.9-7.46-7.12-1.74-14.91-4.02-23.36-6.84-8.45-2.82-16.24-5.97-23.37-9.45-7.13-3.48-13.09-8.74-17.9-15.78-4.81-7.04-7.21-15.54-7.21-25.48,0-14.42,6.26-26.85,18.77-37.29,12.51-10.44,28.71-15.66,48.59-15.66,29.33,0,52.03,10.69,68.11,32.06l-25.85,24.86c-12.59-13.92-27.18-20.88-43.75-20.88-17.4,0-26.1,5.47-26.1,16.41,0,4.14,2.4,7.62,7.21,10.44s10.77,5.01,17.9,6.59c7.12,1.57,14.91,3.77,23.37,6.59,8.45,2.82,16.24,5.97,23.36,9.45,7.13,3.48,13.09,8.78,17.9,15.91s7.21,15.58,7.21,25.35c0,15.74-6.3,28.88-18.89,39.4-12.59,10.52-28.25,15.78-46.98,15.78-19.72,0-36.46-3.98-50.21-11.93s-23.86-18.15-30.33-30.57l28.09-23.37c5.8,9.28,13.17,16.57,22.12,21.87,8.95,5.3,18.72,7.95,29.33,7.95,9.11,0,15.91-1.53,20.38-4.6,4.47-3.07,6.71-6.92,6.71-11.56s-2.4-8.58-7.21-11.81Z"/>
  </g>
</svg>